<svg xmlns="http://www.w3.org/2000/svg" xmlns:xlink="http://www.w3.org/1999/xlink" width="500" zoomAndPan="magnify" viewBox="0 0 375 374.999991" height="500" preserveAspectRatio="xMidYMid meet" version="1.0"><defs><clipPath id="157b3ded45"><path d="M 67 149.535156 L 306 149.535156 L 306 225.285156 L 67 225.285156 Z M 67 149.535156 " clip-rule="nonzero"/></clipPath><clipPath id="538449136a"><path d="M 105 203 L 145 203 L 145 225.285156 L 105 225.285156 Z M 105 203 " clip-rule="nonzero"/></clipPath><clipPath id="fdb320242f"><path d="M 247 149.535156 L 308 149.535156 L 308 187 L 247 187 Z M 247 149.535156 " clip-rule="nonzero"/></clipPath></defs><rect x="-37.5" width="450" fill="#ffffff" y="-37.499999" height="449.999989" fill-opacity="1"/><rect x="-37.5" width="450" fill="#1d1c21" y="-37.499999" height="449.999989" fill-opacity="1"/><g clip-path="url(#157b3ded45)"><path fill="#fcfcfc" d="M 279.039062 203.117188 L 267.53125 193.386719 L 261.761719 188.511719 L 253.058594 181.152344 L 245.402344 174.6875 L 241.875 171.695312 L 215.65625 149.535156 L 156.839844 149.535156 L 144.644531 159.835938 L 130.621094 171.699219 L 119.4375 181.152344 L 104.964844 193.386719 L 93.445312 203.117188 L 67.21875 225.277344 L 99.941406 225.277344 L 126.160156 203.113281 L 137.664062 193.382812 L 144.640625 187.492188 L 159.257812 175.132812 L 159.265625 175.132812 L 163.3125 171.707031 L 163.3125 225.277344 L 218.257812 225.277344 L 244.472656 203.113281 L 245.410156 202.324219 L 246.335938 203.113281 L 272.554688 225.277344 L 305.257812 225.277344 L 279.039062 203.113281 Z M 223.28125 193.386719 L 211.757812 203.117188 L 182.859375 203.117188 L 182.859375 193.386719 L 206.289062 193.386719 L 206.289062 181.152344 L 182.859375 181.152344 L 182.859375 171.699219 L 209.160156 171.699219 L 213.21875 175.132812 L 220.34375 181.152344 L 229.042969 188.511719 L 223.273438 193.386719 Z M 223.28125 193.386719 " fill-opacity="1" fill-rule="nonzero"/></g><g clip-path="url(#538449136a)"><path fill="#1cfd9a" d="M 105.011719 225.285156 L 144.644531 225.285156 L 144.644531 203.117188 L 131.230469 203.117188 Z M 105.011719 225.285156 " fill-opacity="1" fill-rule="nonzero"/></g><g clip-path="url(#fdb320242f)"><path fill="#1cfd9a" d="M 270.46875 181.152344 L 281.652344 171.699219 L 307.875 149.535156 L 275.160156 149.535156 L 248.9375 171.699219 L 247.554688 172.871094 L 263.914062 186.699219 Z M 270.46875 181.152344 " fill-opacity="1" fill-rule="nonzero"/></g></svg>