<?xml version="1.0" encoding="UTF-8"?>
<svg id="Layer_1" data-name="Layer 1" xmlns="http://www.w3.org/2000/svg" viewBox="0 0 411.87 130">
  <defs>
    <style>
      .cls-1 {
        fill: #fcfcfc;
      }

      .cls-1, .cls-2, .cls-3 {
        stroke-width: 0px;
      }

      .cls-2 {
        fill: none;
      }

      .cls-3 {
        fill: #1cfd9a;
      }
    </style>
  </defs>
  <polygon class="cls-2" points="276.97 66.89 267.09 75.26 247.38 91.96 197.92 91.96 197.92 75.26 238.02 75.26 238.02 54.26 197.92 54.26 197.92 38.04 242.94 38.04 249.89 43.93 262.08 54.26 276.97 66.89"/>
  <path class="cls-1" d="M362.52,91.96l-19.7-16.7-9.87-8.37-14.9-12.63-13.1-11.09-6.04-5.14L254.04,0h-100.66l-20.87,17.68-24,20.36-19.14,16.22-24.77,21-19.72,16.7L0,129.99h56l44.87-38.04,19.69-16.7,11.94-10.11,25.02-21.21h.01l6.93-5.88v91.94h94.03l44.87-38.04,1.6-1.35,1.59,1.35,44.87,38.04h55.97l-44.87-38.04ZM267.09,75.26l-19.72,16.7h-49.46v-16.7h40.1v-21h-40.1v-16.22h45.01l6.95,5.89,12.19,10.33,14.89,12.63-9.87,8.37Z"/>
  <polygon class="cls-3" points="64.68 130 132.51 130 132.51 91.96 109.55 91.96 64.68 130"/>
  <polygon class="cls-3" points="347.85 54.26 366.99 38.04 411.87 0 355.88 0 311 38.04 308.63 40.05 336.63 63.78 347.85 54.26"/>
</svg>